Results
version=1
nRows=22
nColumns=24
inDegrees=yes
endheader
time	pelvis_tilt	pelvis_list	pelvis_rotation	pelvis_tx	pelvis_ty	pelvis_tz	hip_flexion_r	hip_adduction_r	hip_rotation_r	knee_angle_r	ankle_angle_r	subtalar_angle_r	mtp_angle_r	hip_flexion_l	hip_adduction_l	hip_rotation_l	knee_angle_l	ankle_angle_l	subtalar_angle_l	mtp_angle_l	lumbar_extension	lumbar_bending	lumbar_rotation
      0.87433333	     -6.16870958	     -2.17049591	      3.81485827	     -0.39138105	      0.90512545	      0.30964053	     16.91271676	      9.15596857	     -2.22631407	    -20.08773589	      8.53281779	     -5.33552012	      6.97381603	     24.01098471	     -6.91158056	     -5.82684920	    -59.26112179	      7.88996881	     -3.12828252	      3.21483282	      3.86451871	      3.93523681	     -0.22050663
      0.87850000	     -6.13274370	     -2.07164521	      3.46945738	     -0.38653086	      0.90602112	      0.31024065	     16.28360007	      9.16659779	     -1.92828586	    -19.62148482	      8.55568158	     -5.17037086	      6.97526955	     24.40571287	     -6.85594788	     -6.11798962	    -58.36859114	      7.92149433	     -3.62613892	      3.17952872	      3.77809127	      3.90375944	      0.02282453
      0.88266667	     -6.09219487	     -1.94965402	      3.09879430	     -0.38168484	      0.90687603	      0.31087830	     15.66383756	      9.14976815	     -1.62691870	    -19.19152427	      8.60673502	     -4.95832937	      6.98233505	     24.76789310	     -6.79186796	     -6.44787968	    -57.43180995	      7.93811707	     -4.07994865	      3.12864281	      3.67816073	      3.82100183	      0.35866230
      0.88683333	     -6.05605174	     -1.83075424	      2.72356825	     -0.37685930	      0.90766714	      0.31152850	     15.05438405	      9.12918097	     -1.32851380	    -18.76669798	      8.66949433	     -4.72714289	      6.99515985	     25.12710428	     -6.73712751	     -6.78218518	    -56.47196911	      7.92947338	     -4.53675625	      3.05488911	      3.58422093	      3.72786463	      0.73621732
      0.89100000	     -6.01569466	     -1.71323063	      2.32828887	     -0.37203672	      0.90841506	      0.31218795	     14.45330122	      9.10603278	     -1.01659469	    -18.36891857	      8.72660132	     -4.50714558	      7.00921861	     25.46054236	     -6.69834057	     -7.14702084	    -55.47603581	      7.89576284	     -4.97473441	      2.98498524	      3.49219334	      3.67819540	      1.03923986
      0.89516667	     -5.97071748	     -1.59922457	      1.92048782	     -0.36723396	      0.90911406	      0.31287362	     13.85111392	      9.08273367	     -0.69857021	    -17.97185537	      8.78921700	     -4.27863428	      7.02725136	     25.77784638	     -6.67035981	     -7.51551166	    -54.45605378	      7.82648200	     -5.43184340	      2.90141071	      3.38619803	      3.60252522	      1.40039264
      0.89933333	     -5.93114511	     -1.48943574	      1.50990098	     -0.36243803	      0.90975071	      0.31355505	     13.26135442	      9.05597697	     -0.38149171	    -17.58564166	      8.85667503	     -4.04853701	      7.04863972	     26.08999109	     -6.65195706	     -7.88994757	    -53.41398197	      7.73752115	     -5.86683892	      2.81114208	      3.29048316	      3.53662273	      1.76111715
      0.90350000	     -5.89027121	     -1.38768986	      1.09718780	     -0.35766038	      0.91033373	      0.31424236	     12.67751912	      9.03159512	     -0.06494906	    -17.20896538	      8.92963489	     -3.81805161	      7.07362756	     26.39197718	     -6.64658725	     -8.26414706	    -52.35074926	      7.62779155	     -6.28062426	      2.71205918	      3.19435277	      3.47534000	      2.13190225
      0.90766667	     -5.85225960	     -1.29323147	      0.69145190	     -0.35287959	      0.91085663	      0.31491416	     12.09384466	      9.00514013	      0.23978963	    -16.82247193	      9.02386163	     -3.57691572	      7.10881852	     26.68894502	     -6.64393704	     -8.61925662	    -51.27136482	      7.50434964	     -6.68549062	      2.58105511	      3.10355664	      3.39958921	      2.57016491
      0.91183333	     -5.81980758	     -1.20569498	      0.25798132	     -0.34813543	      0.91130571	      0.31562554	     11.54580696	      8.98484782	      0.56771926	    -16.49528739	      9.08367481	     -3.34745551	      7.13653365	     26.97979356	     -6.67881197	     -9.03396386	    -50.17830624	      7.35604671	     -7.01870505	      2.48337773	      3.01010469	      3.37492193	      2.86327178
      0.91600000	     -5.77703582	     -1.12524210	     -0.16790120	     -0.34336994	      0.91173637	      0.31630369	     10.97555215	      8.96059017	      0.87877452	    -16.14189958	      9.16618339	     -3.11079513	      7.16950116	     27.24235780	     -6.70428927	     -9.40589335	    -49.05467099	      7.19184389	     -7.35464659	      2.37499049	      2.92193312	      3.33937212	      3.23847779
      0.92016667	     -5.74194923	     -1.05533433	     -0.57259767	     -0.33861606	      0.91209370	      0.31694102	     10.41693790	      8.93472743	      1.16028904	    -15.79011118	      9.28421310	     -2.85095592	      7.22147724	     27.51321527	     -6.72907754	     -9.74281916	    -47.92427478	      7.03185997	     -7.66766478	      2.21676100	      2.84133922	      3.29426847	      3.72104225
      0.92433333	     -5.71816766	     -0.99642694	     -1.00932039	     -0.33388402	      0.91237125	      0.31762025	      9.89630277	      8.92012027	      1.47054052	    -15.49348261	      9.35828738	     -2.61296071	      7.25705130	     27.78317182	     -6.79674191	    -10.14205838	    -46.78894450	      6.84497577	     -7.88057172	      2.11315301	      2.76612949	      3.29838217	      3.99322676
      0.92850000	     -5.69557159	     -0.95103613	     -1.41660103	     -0.32913830	      0.91260455	      0.31823376	      9.36338847	      8.90422099	      1.74486364	    -15.16453327	      9.46869953	     -2.30982652	      7.33379188	     28.04994942	     -6.84732483	    -10.46115343	    -45.64005205	      6.67763160	     -8.11645350	      1.90346754	      2.69601199	      3.29504604	      4.51709505
      0.93266667	     -5.65365487	     -0.90586894	     -1.82036236	     -0.32437338	      0.91282067	      0.31884618	      8.81541323	      8.88241616	      2.01171336	    -14.85219062	      9.59448346	     -2.07547560	      7.38960494	     28.28051852	     -6.90908894	    -10.80863416	    -44.47294825	      6.48497767	     -8.26328021	      1.76320793	      2.61563623	      3.28642616	      4.81540976
      0.93683333	     -5.63708730	     -0.88220852	     -2.24071150	     -0.31964391	      0.91294202	      0.31945156	      8.31577891	      8.87830823	      2.28803652	    -14.57929382	      9.67696056	     -1.81853929	      7.42914642	     28.53394769	     -7.00253412	    -11.16598779	    -43.30914074	      6.28037698	     -8.34840487	      1.67171438	      2.55660047	      3.32329218	      5.07025832
      0.94100000	     -5.60147583	     -0.86362596	     -2.62448641	     -0.31487056	      0.91304823	      0.31998591	      7.77814214	      8.86353307	      2.52235869	    -14.27425365	      9.83020395	     -1.52600659	      7.49036315	     28.75852295	     -7.07102326	    -11.45212106	    -42.13147061	      6.11273595	     -8.42987288	      1.54574229	      2.48052059	      3.34486436	      5.50296963
      0.94516667	     -5.59627322	     -0.86341791	     -3.02289370	     -0.31012987	      0.91305227	      0.32052006	      7.29576704	      8.86460678	      2.76132915	    -14.01298249	      9.94429581	     -1.20492705	      7.57356673	     29.01190270	     -7.16920122	    -11.74634025	    -40.96116259	      5.94097332	     -8.44072113	      1.38760811	      2.43027963	      3.40708083	      5.88989287
      0.94933333	     -5.57892031	     -0.86517928	     -3.41189147	     -0.30536810	      0.91303712	      0.32103621	      6.80315439	      8.86116086	      2.99463182	    -13.76253850	     10.06142657	     -0.96043171	      7.61406717	     29.23826551	     -7.26950577	    -12.04706670	    -39.77513056	      5.74617161	     -8.38102235	      1.32046364	      2.38150307	      3.46079771	      6.08463597
      0.95350000	     -5.55456664	     -0.87878117	     -3.78545282	     -0.30059698	      0.91299075	      0.32150131	      6.30047980	      8.85854911	      3.20608331	    -13.50842144	     10.20098397	     -0.66379859	      7.66075012	     29.44948361	     -7.36481105	    -12.30185393	    -38.58319142	      5.58511301	     -8.29564193	      1.25519763	      2.31713017	      3.53169560	      6.39346934
      0.95766667	     -5.54554351	     -0.90466320	     -4.15088057	     -0.29582441	      0.91286924	      0.32194010	      5.81906282	      8.86357349	      3.41175208	    -13.26571268	     10.34609583	     -0.36469713	      7.70551474	     29.67448110	     -7.46724254	    -12.53197093	    -37.39675443	      5.43537092	     -8.16358160	      1.20300617	      2.27298301	      3.61551563	      6.68317894
      0.96183333	     -5.53216178	     -0.93404581	     -4.50847364	     -0.29103564	      0.91271865	      0.32233765	      5.33804969	      8.86256637	      3.60036492	    -13.03725812	     10.50677989	     -0.05727758	      7.75304684	     29.88232895	     -7.56516208	    -12.74386731	    -36.20124159	      5.30384410	     -7.98356202	      1.15938357	      2.21976491	      3.70351130	      6.98708837
